<mxfile host="65bd71144e">
    <diagram id="2jA7rHDQp8PQhUCkA_SO" name="第 1 页">
        <mxGraphModel dx="385" dy="237" grid="0" gridSize="10" guides="1" tooltips="1" connect="1" arrows="1" fold="1" page="1" pageScale="1" pageWidth="827" pageHeight="1169" math="0" shadow="0">
            <root>
                <mxCell id="0"/>
                <mxCell id="1" parent="0"/>
                <mxCell id="zrWbbRvO_FzbXWMjURW--78" value="" style="edgeStyle=none;html=1;" parent="1" source="zrWbbRvO_FzbXWMjURW--75" edge="1">
                    <mxGeometry relative="1" as="geometry">
                        <mxPoint x="462" y="149" as="targetPoint"/>
                    </mxGeometry>
                </mxCell>
                <mxCell id="zrWbbRvO_FzbXWMjURW--75" value="&lt;font style=&quot;font-size: 8px;&quot;&gt;&lt;b&gt;data&lt;/b&gt;&lt;/font&gt;" style="rounded=1;whiteSpace=wrap;html=1;fillColor=#d5e8d4;strokeColor=#82b366;" parent="1" vertex="1">
                    <mxGeometry x="441.5" y="163" width="39.5" height="19" as="geometry"/>
                </mxCell>
                <mxCell id="zrWbbRvO_FzbXWMjURW--77" value="&lt;font size=&quot;1&quot; style=&quot;&quot;&gt;&lt;b style=&quot;font-size: 7px;&quot;&gt;processing&lt;/b&gt;&lt;/font&gt;" style="rounded=1;whiteSpace=wrap;html=1;absoluteArcSize=1;flipV=1;flipH=1;align=center;fillColor=#f8cecc;strokeColor=#b85450;" parent="1" vertex="1">
                    <mxGeometry x="441.5" y="130" width="41" height="20" as="geometry"/>
                </mxCell>
                <mxCell id="zrWbbRvO_FzbXWMjURW--83" value="" style="edgeStyle=elbowEdgeStyle;elbow=horizontal;endArrow=classic;html=1;curved=0;rounded=1;endSize=8;startSize=8;" parent="1" edge="1">
                    <mxGeometry width="50" height="50" relative="1" as="geometry">
                        <mxPoint x="462" y="133" as="sourcePoint"/>
                        <mxPoint x="491" y="98" as="targetPoint"/>
                        <Array as="points">
                            <mxPoint x="461" y="111"/>
                        </Array>
                    </mxGeometry>
                </mxCell>
                <mxCell id="zrWbbRvO_FzbXWMjURW--85" value="" style="rounded=1;whiteSpace=wrap;html=1;dashed=1;movable=1;resizable=1;rotatable=1;deletable=1;editable=1;connectable=1;fillColor=#f5f5f5;fontColor=#333333;strokeColor=#666666;" parent="1" vertex="1">
                    <mxGeometry x="492" y="44" width="200" height="168" as="geometry"/>
                </mxCell>
                <mxCell id="zrWbbRvO_FzbXWMjURW--86" value="Finding&amp;nbsp;a&amp;nbsp;Model" style="rounded=1;whiteSpace=wrap;html=1;fillColor=#dae8fc;strokeColor=#6c8ebf;" parent="1" vertex="1">
                    <mxGeometry x="516.25" y="55" width="157.75" height="13" as="geometry"/>
                </mxCell>
                <mxCell id="zrWbbRvO_FzbXWMjURW--90" value="&lt;div style=&quot;&quot;&gt;&lt;span style=&quot;font-size: 8px; background-color: initial;&quot;&gt;&amp;nbsp;Model 1&lt;/span&gt;&lt;/div&gt;" style="rounded=1;whiteSpace=wrap;html=1;align=center;fillColor=#ffe6cc;strokeColor=#d79b00;" parent="1" vertex="1">
                    <mxGeometry x="516.25" y="75" width="46.75" height="14" as="geometry"/>
                </mxCell>
                <mxCell id="zrWbbRvO_FzbXWMjURW--97" value="&lt;p style=&quot;line-height: 0%;&quot;&gt;&lt;font style=&quot;font-size: 6px;&quot;&gt;&lt;b&gt;ARIMA&amp;nbsp;model&lt;/b&gt;&lt;/font&gt;&lt;/p&gt;" style="rounded=1;whiteSpace=wrap;html=1;fillColor=#d5e8d4;strokeColor=#82b366;" parent="1" vertex="1">
                    <mxGeometry x="600.12" y="77.25" width="57.88" height="9.5" as="geometry"/>
                </mxCell>
                <mxCell id="zrWbbRvO_FzbXWMjURW--99" value="&lt;p style=&quot;line-height: 60%;&quot;&gt;&lt;font style=&quot;font-size: 6px;&quot;&gt;&lt;b style=&quot;&quot;&gt;Correlation&amp;nbsp;Analysis&amp;nbsp;Model&lt;/b&gt;&lt;/font&gt;&lt;/p&gt;" style="rounded=1;whiteSpace=wrap;html=1;fillColor=#d5e8d4;strokeColor=#82b366;" parent="1" vertex="1">
                    <mxGeometry x="587.25" y="91.75" width="86.75" height="12.5" as="geometry"/>
                </mxCell>
                <mxCell id="zrWbbRvO_FzbXWMjURW--101" value="&lt;p style=&quot;line-height: 100%;&quot;&gt;&lt;font style=&quot;font-size: 6px;&quot;&gt;&lt;b style=&quot;&quot;&gt;BP&amp;nbsp;neural&amp;nbsp;network&amp;nbsp;prediction&amp;nbsp;model&lt;/b&gt;&lt;/font&gt;&lt;/p&gt;" style="rounded=1;whiteSpace=wrap;html=1;fillColor=#d5e8d4;strokeColor=#82b366;" parent="1" vertex="1">
                    <mxGeometry x="579" y="108.5" width="106" height="14" as="geometry"/>
                </mxCell>
                <mxCell id="zrWbbRvO_FzbXWMjURW--103" value="&lt;font style=&quot;font-size: 10px;&quot;&gt;&lt;b&gt;draw&amp;nbsp;conclusions&lt;/b&gt;&lt;/font&gt;" style="rounded=1;whiteSpace=wrap;html=1;fillColor=#dae8fc;strokeColor=#6c8ebf;" parent="1" vertex="1">
                    <mxGeometry x="515.75" y="182" width="164.25" height="13" as="geometry"/>
                </mxCell>
                <mxCell id="zrWbbRvO_FzbXWMjURW--104" value="&lt;p style=&quot;line-height: 100%;&quot;&gt;&lt;font style=&quot;font-size: 8px;&quot;&gt;&lt;b&gt;The&amp;nbsp;analysis&amp;nbsp;results&amp;nbsp;are&amp;nbsp;relatively&amp;nbsp;good&lt;/b&gt;&lt;/font&gt;&lt;/p&gt;" style="rounded=1;whiteSpace=wrap;html=1;fillColor=#dae8fc;strokeColor=#6c8ebf;" parent="1" vertex="1">
                    <mxGeometry x="516.25" y="163" width="162.75" height="13" as="geometry"/>
                </mxCell>
                <mxCell id="zrWbbRvO_FzbXWMjURW--105" value="&lt;p style=&quot;line-height: 60%;&quot;&gt;&lt;font style=&quot;font-size: 6px;&quot;&gt;&lt;b style=&quot;&quot;&gt;K-means&amp;nbsp;clustering&amp;nbsp;analysis&amp;nbsp;model&lt;/b&gt;&lt;/font&gt;&lt;/p&gt;" style="rounded=1;whiteSpace=wrap;html=1;fillColor=#d5e8d4;strokeColor=#82b366;" parent="1" vertex="1">
                    <mxGeometry x="579.25" y="128.75" width="106.75" height="10.5" as="geometry"/>
                </mxCell>
                <mxCell id="zrWbbRvO_FzbXWMjURW--106" value="&lt;font style=&quot;font-size: 8px;&quot;&gt;Sensitivity&amp;nbsp;Analysis&lt;/font&gt;" style="rounded=1;whiteSpace=wrap;html=1;fillColor=#fff2cc;strokeColor=#d6b656;" parent="1" vertex="1">
                    <mxGeometry x="516.25" y="146" width="163" height="10" as="geometry"/>
                </mxCell>
                <mxCell id="zrWbbRvO_FzbXWMjURW--111" value="&lt;b style=&quot;border-color: var(--border-color); font-size: 7px;&quot;&gt;processing&lt;/b&gt;" style="rounded=1;whiteSpace=wrap;html=1;fillColor=#f8cecc;strokeColor=#b85450;" parent="1" vertex="1">
                    <mxGeometry x="709" y="131" width="43" height="19" as="geometry"/>
                </mxCell>
                <mxCell id="zrWbbRvO_FzbXWMjURW--125" style="edgeStyle=none;html=1;exitX=0.5;exitY=1;exitDx=0;exitDy=0;entryX=0.5;entryY=0;entryDx=0;entryDy=0;fontFamily=Times New Roman;fontSize=8;fontColor=none;" parent="1" source="zrWbbRvO_FzbXWMjURW--112" target="zrWbbRvO_FzbXWMjURW--111" edge="1">
                    <mxGeometry relative="1" as="geometry"/>
                </mxCell>
                <mxCell id="zrWbbRvO_FzbXWMjURW--112" value="&lt;font style=&quot;font-size: 8px;&quot;&gt;Lexical&amp;nbsp;Data&lt;/font&gt;" style="rounded=1;whiteSpace=wrap;html=1;fillColor=#d5e8d4;strokeColor=#82b366;" parent="1" vertex="1">
                    <mxGeometry x="707" y="89" width="47" height="18" as="geometry"/>
                </mxCell>
                <mxCell id="zrWbbRvO_FzbXWMjURW--120" value="" style="edgeStyle=elbowEdgeStyle;elbow=vertical;endArrow=classic;html=1;curved=0;rounded=1;endSize=8;startSize=8;exitX=0.5;exitY=1;exitDx=0;exitDy=0;" parent="1" source="zrWbbRvO_FzbXWMjURW--111" edge="1">
                    <mxGeometry width="50" height="50" relative="1" as="geometry">
                        <mxPoint x="720" y="300" as="sourcePoint"/>
                        <mxPoint x="578" y="211" as="targetPoint"/>
                        <Array as="points">
                            <mxPoint x="667" y="228"/>
                            <mxPoint x="645" y="236"/>
                        </Array>
                    </mxGeometry>
                </mxCell>
                <mxCell id="zrWbbRvO_FzbXWMjURW--121" value="&lt;div style=&quot;&quot;&gt;&lt;span style=&quot;font-size: 8px; background-color: initial;&quot;&gt;&amp;nbsp;Model 2&lt;/span&gt;&lt;/div&gt;" style="rounded=1;whiteSpace=wrap;html=1;align=center;fillColor=#ffe6cc;strokeColor=#d79b00;" parent="1" vertex="1">
                    <mxGeometry x="515.75" y="92" width="46.75" height="14" as="geometry"/>
                </mxCell>
                <mxCell id="zrWbbRvO_FzbXWMjURW--122" value="&lt;div style=&quot;&quot;&gt;&lt;span style=&quot;font-size: 8px; background-color: initial;&quot;&gt;&amp;nbsp;Model 3&lt;/span&gt;&lt;/div&gt;" style="rounded=1;whiteSpace=wrap;html=1;align=center;fillColor=#ffe6cc;strokeColor=#d79b00;" parent="1" vertex="1">
                    <mxGeometry x="515.75" y="108.5" width="46.75" height="14" as="geometry"/>
                </mxCell>
                <mxCell id="zrWbbRvO_FzbXWMjURW--123" value="&lt;div style=&quot;&quot;&gt;&lt;span style=&quot;font-size: 8px; background-color: initial;&quot;&gt;&amp;nbsp;Model 4&lt;/span&gt;&lt;/div&gt;" style="rounded=1;whiteSpace=wrap;html=1;align=center;fillColor=#ffe6cc;strokeColor=#d79b00;" parent="1" vertex="1">
                    <mxGeometry x="515.75" y="127" width="46.75" height="14" as="geometry"/>
                </mxCell>
            </root>
        </mxGraphModel>
    </diagram>
    <diagram id="p_KO5bjBUO5mvh2Q3WgG" name="第 2 页">
        <mxGraphModel dx="1270" dy="616" grid="1" gridSize="10" guides="1" tooltips="1" connect="1" arrows="1" fold="1" page="1" pageScale="1" pageWidth="827" pageHeight="1169" math="0" shadow="0">
            <root>
                <mxCell id="0"/>
                <mxCell id="1" parent="0"/>
            </root>
        </mxGraphModel>
    </diagram>
</mxfile>